<?xml version="1.0" encoding="UTF-8"?>
<svg width="1200pt" height="1200pt" version="1.1" viewBox="0 0 1200 1200" xmlns="http://www.w3.org/2000/svg">
 <path d="m402.06 746.65h12.445c57.781 0 164.51 46.199 164.51 111.98 0 43.246-56.016 81.984-98.016 110.53l-107.98 24.277v106.38h700.89v-106.5l-125.09-26.676c-68.688-56.832-71.809-116.95-71.914-119.09 0-207 240.96-215.41 251.23-215.68l12.145-0.30078 0.003906-133.77h-738.23zm24.891-223.96h688.45v85.152c-53.281 4.8125-263.36 36.73-263.35 240.1 0.097656 3.0234 3.1445 74.953 83.398 139.92l2.3164 1.8711 111.25 23.723v61.477h-651.12v-61.57l93.168-20.953 1.9453-1.332c46.801-31.801 110.88-75.348 110.88-132.45 0-79.848-108.5-130.6-176.95-136.31l0.003906-199.63z"/>
 <path d="m386.43 737.11v-219.34l-10.078-1.957c-1.2969-0.25391-131.32-25.105-268.82-25.105-43.691 0-50.988 20.473-51.457 32.676-2.5703 66.672 201.84 203.81 316.95 212.66zm-24.879-27.445c-111.6-17.41-282.2-144.01-280.63-185.3 0.3125-8.125 20.461-8.7461 26.605-8.7461 113.16 0 221.23 17.137 254.03 22.836z"/>
 <path d="m583.54 384.65 129.35 50.711c4.3672 1.7148 8.9531 2.5781 13.621 2.5781 15.457 0 29.113-9.3008 34.766-23.711l28.754-73.367 328.21 128.66 25.727-65.652-328.21-128.64 28.754-73.355c3.6484-9.2891 3.4453-19.43-0.53906-28.559-3.9961-9.1445-11.293-16.176-20.578-19.812l-129.34-50.723c-4.3789-1.7148-8.9531-2.5781-13.621-2.5781-15.48 0-29.113 9.3008-34.754 23.711l-83.258 212.36c-7.5078 19.164 1.9727 40.859 21.125 48.371zm223.15-86.258 305.02 119.58-7.5586 19.309-305.03-119.58 4.9805-12.719zm-221.11 46.957 83.258-212.36c1.8828-4.8008 6.4336-7.9062 11.594-7.9062 1.5352 0 3.0703 0.28906 4.5234 0.86328l129.36 50.711c3.0977 1.2109 5.5195 3.5508 6.8516 6.6016 1.3203 3.0352 1.3906 6.4219 0.19141 9.5156l-28.754 73.367h-0.011718l-25.727 65.641-28.754 73.355c-2.4609 6.2539-9.8164 9.5391-16.141 7.043l-129.34-50.711c-6.3828-2.4844-9.5625-9.7227-7.0547-16.117z"/>
 <path d="m601.14 1004.2s59.09 0.42188 118.19 0.81641c59.102-0.39453 118.21-0.81641 118.21-0.81641v-1.668s-14.785-4.7148-36.938-8.0391c-5.543-0.88672-11.555-1.8242-17.891-2.4375-6.3477-0.70703-13.055-1.5703-19.969-1.8945-6.9375-0.37109-14.09-1.1758-21.348-1.2227-7.2734-0.16797-14.664-0.32422-22.055-0.49219-7.3789 0.16797-14.773 0.32422-22.043 0.49219-7.2734 0-14.438 0.81641-21.348 1.1992-6.9375 0.34766-13.633 1.1758-19.98 1.8711-6.3359 0.61328-12.336 1.5469-17.879 2.4375-22.164 3.3477-36.926 8.0898-36.926 8.0898v1.6641z"/>
</svg>
